<svg width="15" height="16" viewBox="0 0 15 16" fill="none" xmlns="http://www.w3.org/2000/svg">
<path d="M7.2837 1.26364C6.79055 1.31844 6.58356 1.35192 6.28523 1.41585C3.91693 1.93639 2.03264 3.79633 1.42382 6.2042C1.17725 7.19049 1.17725 8.29245 1.42382 9.28482C1.5608 9.82363 1.82868 10.5238 2.06612 10.9469C2.24268 11.2665 2.23964 11.3091 1.95958 12.2437C1.6917 13.1356 1.66735 13.2939 1.77998 13.437C1.84999 13.5283 2.00524 13.6044 2.11787 13.6044C2.16049 13.6044 2.541 13.5009 2.96413 13.373C3.97781 13.0717 3.84996 13.0595 4.78754 13.5496C5.69468 14.0275 6.64444 14.2558 7.72509 14.2558C8.78139 14.2589 9.66113 14.0549 10.617 13.5892C12.3491 12.749 13.5515 11.3 14.0264 9.48878C14.4343 7.92107 14.2821 6.33814 13.588 4.91351C12.6322 2.9592 10.8453 1.64111 8.71442 1.32148C8.40392 1.27582 7.49678 1.23929 7.2837 1.26364ZM5.13152 7.06873C5.51812 7.29399 5.64902 7.72929 5.4542 8.11894C5.30199 8.42335 5.04933 8.58164 4.71448 8.58164C4.42225 8.58164 4.10262 8.35942 3.97781 8.07328C3.91693 7.92716 3.91389 7.62579 3.97477 7.48272C4.04174 7.31834 4.23352 7.12048 4.40703 7.03828C4.61707 6.93783 4.93061 6.95001 5.13152 7.06873ZM8.04472 7.0322C8.68702 7.32139 8.69616 8.20722 8.05994 8.50858C7.50896 8.77037 6.8697 8.3168 6.92754 7.69885C6.96407 7.27572 7.30196 6.96827 7.72509 6.96827C7.84381 6.96827 7.95644 6.99262 8.04472 7.0322ZM11.0705 7.04437C11.5667 7.28486 11.6824 7.95456 11.2958 8.3442C11.1527 8.48423 10.9884 8.56033 10.7844 8.57555C10.4465 8.5999 10.1817 8.45683 10.0112 8.15547C9.92901 8.01239 9.91684 7.9576 9.91684 7.77495C9.91684 7.59535 9.93206 7.53447 10.0082 7.39749C10.1117 7.2118 10.2578 7.0809 10.4343 7.01393C10.5957 6.95609 10.9183 6.96827 11.0705 7.04437Z" fill="#FCFCFC"/>
</svg>
