<svg width="44" height="45" viewBox="0 0 44 45" fill="none" xmlns="http://www.w3.org/2000/svg">
<rect y="0.4375" width="44" height="44" rx="22" fill="#FCFCFC" fill-opacity="0.1"/>
<path d="M14.8838 13.2627V19.8568C15.8041 18.6598 16.9073 18.0573 18.1867 18.0573C18.8456 18.0573 19.4357 18.1946 19.9651 18.4668C20.4959 18.7373 20.8928 19.0847 21.1608 19.5063C21.4303 19.9319 21.6125 20.398 21.7109 20.9117C21.8087 21.423 21.8575 22.2186 21.8575 23.2977V30.3482H18.9981V23.998C18.9981 22.7379 18.9463 21.9399 18.8375 21.6007C18.7355 21.2684 18.5332 20.9836 18.2637 20.793C17.9882 20.5902 17.6454 20.4901 17.2315 20.4901C16.7577 20.4901 16.3327 20.6193 15.9632 20.8762C15.5856 21.1346 15.3147 21.5207 15.1429 22.0368C14.9682 22.5538 14.8808 23.3171 14.8838 24.3275L14.8808 30.3482H12.0251V13.2627H14.8845M26.1429 13.2627V19.8568C27.064 18.6598 28.1664 18.0573 29.4451 18.0573C30.1018 18.0573 30.6964 18.1946 31.2265 18.4668C31.7551 18.7373 32.152 19.0847 32.4185 19.5063C32.6875 19.9291 32.8747 20.4073 32.9686 20.9117C33.0671 21.423 33.116 22.2186 33.116 23.2977V30.3482H30.2595V23.998C30.2595 22.7379 30.2055 21.9399 30.0967 21.6007C29.9947 21.2679 29.7917 20.983 29.5214 20.793C29.2489 20.5902 28.9031 20.4901 28.4893 20.4901C28.0161 20.4901 27.5912 20.6193 27.221 20.8762C26.8485 21.1346 26.5761 21.5207 26.4021 22.0368C26.2303 22.5538 26.1429 23.3171 26.1429 24.3275V30.3482H23.2872V13.2627H26.1429Z" fill="#FCFCFC"/>
</svg>
