<svg width="13" height="10" viewBox="0 0 13 10" fill="none" xmlns="http://www.w3.org/2000/svg">
<path d="M11.5 0.00292969H1.5C1.16848 0.00292969 0.850537 0.134626 0.616116 0.369046C0.381696 0.603467 0.25 0.921409 0.25 1.25293V8.75293C0.25 9.08445 0.381696 9.40239 0.616116 9.63681C0.850537 9.87123 1.16848 10.0029 1.5 10.0029H11.5C11.8315 10.0029 12.1495 9.87123 12.3839 9.63681C12.6183 9.40239 12.75 9.08445 12.75 8.75293V1.25293C12.75 0.921409 12.6183 0.603467 12.3839 0.369046C12.1495 0.134626 11.8315 0.00292969 11.5 0.00292969ZM11.5 2.94043L6.5 6.27418L1.5 2.94043V1.43855L6.5 4.77168L11.5 1.43855V2.94043Z" fill="#FCFCFC"/>
</svg>
