<svg width="44" height="45" viewBox="0 0 44 45" fill="none" xmlns="http://www.w3.org/2000/svg">
<rect y="0.4375" width="44" height="44" rx="22" fill="#FCFCFC" fill-opacity="0.12"/>
<path d="M17.3615 15.0208C17.3612 15.507 17.1679 15.9732 16.8239 16.3169C16.4799 16.6605 16.0135 16.8534 15.5272 16.8532C15.041 16.8529 14.5748 16.6596 14.2311 16.3156C13.8875 15.9716 13.6946 15.5052 13.6948 15.0189C13.6951 14.5327 13.8885 14.0665 14.2324 13.7228C14.5764 13.3792 15.0428 13.1863 15.5291 13.1865C16.0153 13.1868 16.4815 13.3802 16.8252 13.7241C17.1688 14.0681 17.3617 14.5345 17.3615 15.0208ZM17.4165 18.2108H13.7498V29.6874H17.4165V18.2108ZM23.2098 18.2108H19.5615V29.6874H23.1732V23.6649C23.1732 20.3099 27.5457 19.9983 27.5457 23.6649V29.6874H31.1665V22.4183C31.1665 16.7624 24.6948 16.9733 23.1732 19.7508L23.2098 18.2108Z" fill="#FCFCFC"/>
</svg>
