<svg width="11" height="14" viewBox="0 0 11 14" fill="none" xmlns="http://www.w3.org/2000/svg">
<path d="M1.66993 0.475239C1.15383 0.588903 0.693026 0.954473 0.444193 1.44599C0.235296 1.86686 0.244512 1.52279 0.253728 7.05549L0.262944 12.0567L0.330528 12.2564C0.533281 12.8493 1.00023 13.3101 1.58391 13.4944L1.79895 13.562H5.50073H9.2025L9.44826 13.4791C10.0442 13.2763 10.4313 12.8923 10.674 12.2564C10.7385 12.0874 10.7385 12.069 10.7477 8.50855C10.7539 5.90656 10.7477 4.8805 10.7231 4.74534C10.6801 4.53337 10.5542 4.24153 10.4159 4.03877C10.3299 3.91282 7.59584 1.09271 7.36237 0.88996C7.19033 0.739432 6.963 0.613479 6.71417 0.527463L6.46841 0.444519L4.1644 0.438375C2.30583 0.435303 1.82353 0.441447 1.66993 0.475239ZM5.66047 5.80518C5.80178 5.84512 5.98303 6.04173 6.01068 6.18918C6.05369 6.41651 5.97996 6.6039 5.79564 6.73907C5.71577 6.80051 5.66661 6.80358 4.58527 6.8128C3.96472 6.81894 3.41176 6.8128 3.35646 6.80358C3.21515 6.77901 3.02776 6.58547 2.98475 6.42573C2.91716 6.18304 3.03697 5.94035 3.27044 5.83283C3.38411 5.7806 3.49163 5.77446 4.4716 5.77446C5.10444 5.77446 5.59289 5.78675 5.66047 5.80518ZM7.73715 8.52084C8.18566 8.75738 8.10579 9.38407 7.61427 9.4916C7.49753 9.51617 6.8647 9.52232 5.40857 9.51617C3.4732 9.50696 3.35953 9.50388 3.24894 9.44859C2.89873 9.27655 2.86801 8.7666 3.19672 8.54849L3.29809 8.47783H5.47615C7.29171 8.47783 7.66649 8.48398 7.73715 8.52084Z" fill="#FCFCFC"/>
</svg>
