<svg width="15" height="16" viewBox="0 0 15 16" fill="none" xmlns="http://www.w3.org/2000/svg">
<path d="M12.5 3.4375H2.5C2.16848 3.4375 1.85054 3.5692 1.61612 3.80362C1.3817 4.03804 1.25 4.35598 1.25 4.6875V12.1875C1.25 12.519 1.3817 12.837 1.61612 13.0714C1.85054 13.3058 2.16848 13.4375 2.5 13.4375H12.5C12.8315 13.4375 13.1495 13.3058 13.3839 13.0714C13.6183 12.837 13.75 12.519 13.75 12.1875V4.6875C13.75 4.35598 13.6183 4.03804 13.3839 3.80362C13.1495 3.5692 12.8315 3.4375 12.5 3.4375ZM12.5 6.375L7.5 9.70875L2.5 6.375V4.87312L7.5 8.20625L12.5 4.87312V6.375Z" fill="#145CEF"/>
</svg>
