<svg width="14" height="14" viewBox="0 0 14 14" fill="none" xmlns="http://www.w3.org/2000/svg">
<path d="M1.52677 5.34367C3.02452 8.60528 5.68582 11.1904 8.98957 12.5927L9.52007 12.8291C10.1075 13.0907 10.7685 13.1366 11.3864 12.9586C12.0044 12.7806 12.5397 12.3902 12.8981 11.8563L13.5916 10.8234C13.7001 10.6614 13.7441 10.4646 13.7148 10.2719C13.6855 10.0791 13.585 9.90428 13.4332 9.78188L11.0835 7.88614C11.0016 7.82017 10.9073 7.77141 10.8062 7.7428C10.705 7.71418 10.5991 7.70631 10.4949 7.71964C10.3906 7.73298 10.2901 7.76724 10.1994 7.82039C10.1087 7.87353 10.0297 7.94446 9.96709 8.02891L9.24 9.00954C7.3736 8.08776 5.86287 6.57676 4.94143 4.7102L5.92129 3.98311C6.00573 3.92051 6.07666 3.84149 6.12981 3.7508C6.18295 3.66011 6.21722 3.55961 6.23055 3.45534C6.24389 3.35107 6.23601 3.24518 6.2074 3.14403C6.17879 3.04289 6.13003 2.94856 6.06405 2.86673L4.16832 0.516951C4.04591 0.365178 3.87111 0.264743 3.67834 0.235431C3.48557 0.206119 3.28882 0.250054 3.12683 0.358583L2.08691 1.05603C1.5497 1.41628 1.15783 1.95554 0.9811 2.57774C0.804369 3.19994 0.854256 3.86468 1.12187 4.45353L1.52677 5.34367Z" fill="#145CEF"/>
</svg>
