<svg width="44" height="45" viewBox="0 0 44 45" fill="none" xmlns="http://www.w3.org/2000/svg">
<rect y="0.4375" width="44" height="44" rx="22" fill="#FCFCFC" fill-opacity="0.1"/>
<g clip-path="url(#clip0_1_2146)">
<path d="M11.1715 22.1129C11.1683 22.2208 11.1667 22.3289 11.1667 22.4376C11.1667 22.5462 11.1683 22.6544 11.1715 22.7623C15.5602 22.817 18.0273 23.1172 19.6739 24.7637C21.3204 26.4103 21.6206 28.8775 21.6753 33.2662C21.7832 33.2693 21.8914 33.2709 22 33.2709C22.1086 33.2709 22.2168 33.2693 22.3247 33.2662C22.3794 28.8775 22.6796 26.4103 24.3261 24.7637C25.9727 23.1172 28.4399 22.817 32.8286 22.7623C32.8317 22.6544 32.8334 22.5462 32.8334 22.4376C32.8334 22.3289 32.8317 22.2208 32.8286 22.1129C28.4399 22.0582 25.9727 21.758 24.3261 20.1114C22.6796 18.4649 22.3794 15.9977 22.3247 11.609C22.2168 11.6058 22.1086 11.6042 22 11.6042C21.8914 11.6042 21.7832 11.6058 21.6753 11.609C21.6206 15.9977 21.3204 18.4649 19.6739 20.1114C18.0273 21.758 15.5602 22.0582 11.1715 22.1129Z" fill="#FCFCFC"/>
<path fill-rule="evenodd" clip-rule="evenodd" d="M21.5543 9.4375V9.4432C21.6832 9.43941 21.8125 9.4375 21.9422 9.4375C22.0719 9.4375 22.2013 9.43941 22.3301 9.4432V9.4375H21.9422H21.5543ZM9 21.9918H9.0057C9.00191 22.1207 9 22.2499 9 22.3797V21.9918ZM9.0057 22.7676C9.00191 22.6388 9 22.5094 9 22.3797V22.7676H9.0057ZM21.5543 35.3163L21.5544 35.3219H21.9422H22.3301V35.3163C22.2013 35.32 22.0719 35.3219 21.9422 35.3219C21.8125 35.3219 21.6832 35.32 21.5543 35.3163ZM34.8844 22.7675L34.8788 22.7676C34.8825 22.6388 34.8844 22.5094 34.8844 22.3797V22.7675ZM34.8844 21.9918V22.3797C34.8844 22.2499 34.8825 22.1207 34.8788 21.9918H34.8844Z" fill="#FCFCFC"/>
</g>
<defs>
<clipPath id="clip0_1_2146">
<rect width="26" height="26" fill="white" transform="translate(9 9.4375)"/>
</clipPath>
</defs>
</svg>
