<svg width="18" height="19" viewBox="0 0 18 19" fill="none" xmlns="http://www.w3.org/2000/svg">
<path d="M9 17.0029C5.4645 17.0029 3.69675 17.0029 2.598 15.9042C1.5 14.8069 1.5 13.0384 1.5 9.50293C1.5 5.96743 1.5 4.19968 2.598 3.10093C3.6975 2.00293 5.4645 2.00293 9 2.00293C10.0492 2.00293 10.9425 2.00293 11.709 2.03143C11.1448 2.67578 10.8467 3.51051 10.8751 4.36647C10.9035 5.22243 11.2562 6.03559 11.8618 6.64118C12.4673 7.24676 13.2805 7.59947 14.1365 7.62784C14.9924 7.6562 15.8272 7.3581 16.4715 6.79393C16.5 7.56043 16.5 8.45368 16.5 9.50293C16.5 13.0384 16.5 14.8062 15.4012 15.9042C14.304 17.0029 12.5355 17.0029 9 17.0029Z" fill="#145CEF"/>
<path d="M16.5 4.25293C16.5 4.84967 16.2629 5.42196 15.841 5.84392C15.419 6.26588 14.8467 6.50293 14.25 6.50293C13.6533 6.50293 13.081 6.26588 12.659 5.84392C12.2371 5.42196 12 4.84967 12 4.25293C12 3.65619 12.2371 3.0839 12.659 2.66194C13.081 2.23998 13.6533 2.00293 14.25 2.00293C14.8467 2.00293 15.419 2.23998 15.841 2.66194C16.2629 3.0839 16.5 3.65619 16.5 4.25293Z" fill="#145CEF"/>
</svg>
