<svg width="44" height="45" viewBox="0 0 44 45" fill="none" xmlns="http://www.w3.org/2000/svg">
<rect y="0.4375" width="44" height="44" rx="22" fill="#FCFCFC" fill-opacity="0.1"/>
<path fill-rule="evenodd" clip-rule="evenodd" d="M28.6886 15.1995C28.9152 15.1041 29.1631 15.0712 29.4066 15.1042C29.6502 15.1372 29.8804 15.2349 30.0734 15.3871C30.2664 15.5393 30.4151 15.7404 30.504 15.9695C30.5929 16.1987 30.6187 16.4475 30.5788 16.69L28.4998 29.3006C28.2981 30.517 26.9635 31.2146 25.8479 30.6086C24.9147 30.1017 23.5287 29.3207 22.2821 28.5058C21.6587 28.0979 19.7493 26.7916 19.984 25.8621C20.1856 25.0674 23.394 22.0809 25.2273 20.3053C25.9469 19.6077 25.6187 19.2053 24.769 19.847C22.6579 21.4401 19.2708 23.8629 18.1506 24.5449C17.1625 25.1462 16.6473 25.2489 16.0313 25.1462C14.9075 24.9592 13.8652 24.6696 13.0146 24.3166C11.8651 23.84 11.921 22.2596 13.0136 21.7995L28.6886 15.1995Z" fill="#FCFCFC"/>
</svg>
