<svg width="16" height="17" viewBox="0 0 16 17" fill="none" xmlns="http://www.w3.org/2000/svg">
<path d="M8.00005 1.92432C4.1288 1.92432 0.986908 5.0662 0.986908 8.93746C0.986908 12.8087 4.1288 15.9506 8.00005 15.9506C11.8713 15.9506 15.0132 12.8087 15.0132 8.93746C15.0132 5.0662 11.8713 1.92432 8.00005 1.92432ZM11.2541 6.69325C11.149 7.80133 10.6931 10.4944 10.4617 11.7357C10.3635 12.2617 10.1671 12.437 9.98477 12.4581C9.57801 12.4931 9.26943 12.1916 8.87669 11.9321C8.25954 11.5253 7.90888 11.2728 7.31276 10.8801C6.61846 10.4242 7.0673 10.1718 7.46705 9.76501C7.57225 9.65981 9.36761 8.02575 9.40268 7.87847C9.40755 7.85617 9.4069 7.83301 9.40079 7.81101C9.39468 7.78901 9.38329 7.76884 9.36761 7.75224C9.32554 7.71717 9.26943 7.7312 9.22034 7.73821C9.15722 7.75224 8.17538 8.40446 6.26079 9.69488C5.98027 9.88423 5.72779 9.98242 5.50337 9.9754C5.2509 9.96839 4.77401 9.83514 4.41633 9.71592C3.97451 9.57566 3.63086 9.49851 3.65892 9.25305C3.67294 9.12681 3.84827 9.00058 4.17789 8.86733C6.22573 7.97666 7.58628 7.38756 8.26655 7.10703C10.2162 6.2935 10.616 6.15324 10.8825 6.15324C10.9386 6.15324 11.0718 6.16727 11.156 6.2374C11.2261 6.2935 11.2471 6.37065 11.2541 6.42675C11.2471 6.46883 11.2612 6.59507 11.2541 6.69325Z" fill="#25A4E2"/>
</svg>
