<svg width="16" height="17" viewBox="0 0 16 17" fill="none" xmlns="http://www.w3.org/2000/svg">
<g clip-path="url(#clip0_1_1920)">
<path d="M7.99995 1.40576C3.84016 1.40576 0.468079 4.77784 0.468079 8.93763C0.468079 13.0974 3.84016 16.4695 7.99995 16.4695C12.1597 16.4695 15.5318 13.0974 15.5318 8.93763C15.5318 4.77784 12.1597 1.40576 7.99995 1.40576ZM10.8966 9.90343C10.8966 9.90343 11.5627 10.5609 11.7267 10.8661C11.7314 10.8724 11.7337 10.8787 11.7353 10.8818C11.802 10.994 11.8177 11.0811 11.7847 11.1462C11.7298 11.2545 11.5415 11.3078 11.4772 11.3125H10.3003C10.2187 11.3125 10.0477 11.2913 9.84055 11.1485C9.68128 11.0371 9.52437 10.8543 9.37137 10.6762C9.14306 10.4111 8.94535 10.182 8.74607 10.182C8.72076 10.1819 8.6956 10.1859 8.67154 10.1937C8.5209 10.2424 8.3279 10.4573 8.3279 11.0301C8.3279 11.209 8.18667 11.3117 8.08703 11.3117H7.54803C7.36445 11.3117 6.40805 11.2474 5.56072 10.3538C4.52352 9.2593 3.58988 7.06408 3.58204 7.04368C3.52319 6.90167 3.6448 6.82557 3.77739 6.82557H4.96602C5.1245 6.82557 5.17628 6.92207 5.21237 7.00759C5.25474 7.10723 5.41008 7.50344 5.66507 7.94907C6.07854 8.67558 6.33195 8.97058 6.53516 8.97058C6.57326 8.97013 6.61068 8.96044 6.64421 8.94234C6.90939 8.79484 6.85997 7.84943 6.8482 7.65329C6.8482 7.61641 6.84741 7.23041 6.71168 7.04525C6.6144 6.91109 6.44885 6.86009 6.34843 6.84126C6.38907 6.78517 6.44263 6.73969 6.50456 6.70867C6.68658 6.61766 7.01453 6.60432 7.34012 6.60432H7.52136C7.87442 6.60903 7.96543 6.63178 8.09331 6.66395C8.35222 6.72593 8.35771 6.89304 8.33496 7.46499C8.3279 7.6274 8.32084 7.81099 8.32084 8.02753C8.32084 8.0746 8.31848 8.12482 8.31848 8.17817C8.31064 8.46924 8.30122 8.79955 8.50678 8.93528C8.53359 8.95209 8.56457 8.96106 8.59622 8.96117C8.66762 8.96117 8.88259 8.96117 9.46474 7.96241C9.64428 7.64094 9.80029 7.30688 9.93156 6.96287C9.94333 6.94247 9.97785 6.8797 10.0186 6.85538C10.0488 6.84003 10.0821 6.83222 10.1159 6.83263H11.5132C11.6655 6.83263 11.7698 6.85538 11.7894 6.91422C11.8239 7.00759 11.7831 7.29239 11.1453 8.1562L10.8605 8.53201C10.2823 9.2899 10.2823 9.32835 10.8966 9.90343Z" fill="#4C75A3"/>
</g>
<defs>
<clipPath id="clip0_1_1920">
<rect width="16" height="16" fill="white" transform="translate(0 0.9375)"/>
</clipPath>
</defs>
</svg>
