<svg width="44" height="45" viewBox="0 0 44 45" fill="none" xmlns="http://www.w3.org/2000/svg">
<rect y="0.4375" width="44" height="44" rx="22" fill="#FCFCFC" fill-opacity="0.12"/>
<path d="M31.503 28.8186H29.222C28.359 28.8186 28.099 28.1196 26.552 26.5716C25.2 25.2686 24.629 25.1066 24.287 25.1066C23.814 25.1066 23.685 25.2366 23.685 25.8876V27.9396C23.685 28.4946 23.505 28.8196 22.055 28.8196C20.6483 28.7251 19.2842 28.2977 18.075 27.5727C16.8658 26.8478 15.8461 25.8459 15.1 24.6496C13.3284 22.4446 12.0957 19.8567 11.5 17.0916C11.5 16.7496 11.63 16.4396 12.282 16.4396H14.562C15.148 16.4396 15.359 16.7006 15.589 17.3036C16.696 20.5616 18.585 23.3956 19.352 23.3956C19.646 23.3956 19.774 23.2656 19.774 22.5326V19.1766C19.677 17.6456 18.864 17.5166 18.864 16.9626C18.8743 16.8164 18.9411 16.68 19.0504 16.5824C19.1596 16.4847 19.3026 16.4335 19.449 16.4396H23.033C23.523 16.4396 23.685 16.6836 23.685 17.2696V21.7996C23.685 22.2886 23.895 22.4506 24.043 22.4506C24.337 22.4506 24.563 22.2886 25.102 21.7506C26.2574 20.3416 27.2013 18.7718 27.904 17.0906C27.9759 16.8887 28.1119 16.716 28.2912 16.5986C28.4705 16.4812 28.6832 16.4258 28.897 16.4406H31.178C31.862 16.4406 32.007 16.7826 31.862 17.2706C31.0324 19.129 30.0058 20.8931 28.8 22.5326C28.554 22.9076 28.456 23.1026 28.8 23.5426C29.026 23.8846 29.826 24.5526 30.363 25.1876C31.145 25.9676 31.794 26.8696 32.285 27.8576C32.481 28.4936 32.154 28.8186 31.503 28.8186Z" fill="#FCFCFC"/>
</svg>
