<svg width="16" height="17" viewBox="0 0 16 17" fill="none" xmlns="http://www.w3.org/2000/svg">
<path d="M8.00066 1.91284C11.8804 1.91284 15.0253 5.05776 15.0253 8.93745C15.0253 12.8171 11.8804 15.9621 8.00066 15.9621C6.75926 15.9641 5.5397 15.6355 4.46728 15.0102L0.978863 15.9621L1.92859 12.4722C1.30276 11.3995 0.97398 10.1794 0.976053 8.93745C0.976053 5.05776 4.12097 1.91284 8.00066 1.91284ZM5.60668 5.63588L5.46618 5.6415C5.37523 5.64704 5.28634 5.67094 5.20487 5.71175C5.12867 5.7549 5.0591 5.80885 4.99834 5.87191C4.91405 5.95129 4.86628 6.02013 4.815 6.08686C4.55518 6.42468 4.41528 6.83942 4.41741 7.26559C4.41881 7.6098 4.50873 7.94487 4.64922 8.25817C4.93653 8.89179 5.40928 9.56264 6.03307 10.1843C6.1834 10.3339 6.33091 10.4843 6.48967 10.6241C7.26476 11.3065 8.1884 11.7986 9.18712 12.0613L9.58612 12.1224C9.71607 12.1294 9.84603 12.1196 9.97668 12.1133C10.1813 12.1027 10.381 12.0473 10.5618 11.951C10.6538 11.9036 10.7436 11.8521 10.8309 11.7965C10.8309 11.7965 10.8611 11.7768 10.9187 11.7332C11.0135 11.663 11.0718 11.6131 11.1505 11.5309C11.2088 11.4705 11.2594 11.3996 11.298 11.3188C11.3528 11.2043 11.4076 10.9858 11.4301 10.8039C11.4469 10.6648 11.442 10.5889 11.4399 10.5419C11.4371 10.4667 11.3746 10.3887 11.3064 10.3557L10.8976 10.1724C10.8976 10.1724 10.2865 9.90614 9.91276 9.73615C9.87366 9.71907 9.83175 9.70931 9.78913 9.70735C9.74107 9.70241 9.6925 9.70782 9.6467 9.72321C9.6009 9.73859 9.55893 9.76361 9.5236 9.79656C9.52008 9.79515 9.47302 9.8352 8.96514 10.4506C8.93599 10.4897 8.89584 10.5193 8.8498 10.5356C8.80376 10.5519 8.75392 10.554 8.70663 10.5419C8.66087 10.5296 8.61604 10.5141 8.57246 10.4955C8.48536 10.459 8.45515 10.4449 8.39544 10.4196C7.99228 10.2437 7.61901 10.006 7.28907 9.71507C7.20056 9.6378 7.11837 9.55351 7.03408 9.47202C6.75772 9.20736 6.51687 8.90795 6.31757 8.5813L6.27612 8.51457C6.24635 8.46973 6.22228 8.42135 6.20447 8.37056C6.17778 8.2673 6.24732 8.18441 6.24732 8.18441C6.24732 8.18441 6.41802 7.99756 6.4974 7.8964C6.57467 7.79806 6.63999 7.70252 6.68214 7.63439C6.76503 7.50092 6.79102 7.36394 6.74747 7.25787C6.55078 6.77738 6.34707 6.29901 6.13774 5.82414C6.09629 5.73001 5.97336 5.66258 5.86167 5.64923C5.82374 5.64502 5.7858 5.6408 5.74787 5.63799C5.65353 5.6333 5.559 5.63424 5.46478 5.6408L5.60597 5.63518L5.60668 5.63588Z" fill="url(#paint0_linear_1661_388)"/>
<defs>
<linearGradient id="paint0_linear_1661_388" x1="12.678" y1="3.01665" x2="0.976044" y2="15.9621" gradientUnits="userSpaceOnUse">
<stop stop-color="#52CD5F"/>
<stop offset="1" stop-color="#28B43E"/>
</linearGradient>
</defs>
</svg>
