<svg width="24" height="25" viewBox="0 0 24 25" fill="none" xmlns="http://www.w3.org/2000/svg">
<path d="M21.503 18.8186H19.222C18.359 18.8186 18.099 18.1196 16.552 16.5716C15.2 15.2686 14.629 15.1066 14.287 15.1066C13.814 15.1066 13.685 15.2366 13.685 15.8876V17.9396C13.685 18.4946 13.505 18.8196 12.055 18.8196C10.6483 18.7251 9.28416 18.2977 8.07497 17.5727C6.86578 16.8478 5.84612 15.8459 5.1 14.6496C3.32839 12.4446 2.09571 9.85667 1.5 7.09159C1.5 6.74959 1.63 6.43959 2.282 6.43959H4.562C5.148 6.43959 5.359 6.70059 5.589 7.30359C6.696 10.5616 8.585 13.3956 9.352 13.3956C9.646 13.3956 9.774 13.2656 9.774 12.5326V9.17659C9.677 7.64559 8.864 7.51659 8.864 6.96259C8.87428 6.81643 8.94114 6.68004 9.05037 6.58238C9.15961 6.48473 9.30261 6.4335 9.449 6.43959H13.033C13.523 6.43959 13.685 6.68359 13.685 7.26959V11.7996C13.685 12.2886 13.895 12.4506 14.043 12.4506C14.337 12.4506 14.563 12.2886 15.102 11.7506C16.2574 10.3416 17.2013 8.77176 17.904 7.09059C17.9759 6.88874 18.1119 6.71596 18.2912 6.59861C18.4705 6.48125 18.6832 6.42575 18.897 6.44059H21.178C21.862 6.44059 22.007 6.78259 21.862 7.27059C21.0324 9.12901 20.0058 10.8931 18.8 12.5326C18.554 12.9076 18.456 13.1026 18.8 13.5426C19.026 13.8846 19.826 14.5526 20.363 15.1876C21.145 15.9676 21.794 16.8696 22.285 17.8576C22.481 18.4936 22.154 18.8186 21.503 18.8186Z" fill="#FCFCFC"/>
</svg>
