<svg width="26" height="27" viewBox="0 0 26 27" fill="none" xmlns="http://www.w3.org/2000/svg">
<g clip-path="url(#clip0_1661_339)">
<path d="M2.17143 13.1129C2.16825 13.2208 2.16666 13.3289 2.16666 13.4376C2.16666 13.5462 2.16825 13.6544 2.17143 13.7623C6.56014 13.817 9.02729 14.1172 10.6739 15.7637C12.3204 17.4103 12.6206 19.8775 12.6753 24.2662C12.7832 24.2693 12.8914 24.2709 13 24.2709C13.1086 24.2709 13.2168 24.2693 13.3247 24.2662C13.3794 19.8775 13.6796 17.4103 15.3261 15.7637C16.9727 14.1172 19.4399 13.817 23.8286 13.7623C23.8317 13.6544 23.8333 13.5462 23.8333 13.4376C23.8333 13.3289 23.8317 13.2208 23.8286 13.1129C19.4399 13.0582 16.9727 12.758 15.3261 11.1114C13.6796 9.46487 13.3794 6.99771 13.3247 2.60902C13.2168 2.60585 13.1086 2.60425 13 2.60425C12.8914 2.60425 12.7832 2.60585 12.6753 2.60902C12.6206 6.99772 12.3204 9.46488 10.6739 11.1114C9.02729 12.758 6.56013 13.0582 2.17143 13.1129Z" fill="#FCFCFC"/>
<path fill-rule="evenodd" clip-rule="evenodd" d="M12.5543 0.4375V0.443202C12.6832 0.43941 12.8125 0.4375 12.9422 0.4375C13.0719 0.4375 13.2013 0.43941 13.3301 0.443202V0.4375H12.9422H12.5543ZM0 12.9918H0.00570237C0.00190965 13.1207 0 13.2499 0 13.3797V12.9918ZM0.0057022 13.7676C0.00190959 13.6388 0 13.5094 0 13.3797V13.7676H0.0057022ZM12.5543 26.3163L12.5544 26.3219H12.9422H13.3301V26.3163C13.2013 26.32 13.0719 26.3219 12.9422 26.3219C12.8125 26.3219 12.6832 26.32 12.5543 26.3163ZM25.8844 13.7675L25.8788 13.7676C25.8825 13.6388 25.8844 13.5094 25.8844 13.3797V13.7675ZM25.8844 12.9918V13.3797C25.8844 13.2499 25.8825 13.1207 25.8788 12.9918H25.8844Z" fill="#FCFCFC"/>
</g>
<defs>
<clipPath id="clip0_1661_339">
<rect width="26" height="26" fill="white" transform="translate(0 0.4375)"/>
</clipPath>
</defs>
</svg>
