<svg width="24" height="25" viewBox="0 0 24 25" fill="none" xmlns="http://www.w3.org/2000/svg">
<path d="M4.88375 3.2627V9.85683C5.80406 8.65981 6.90725 8.05726 8.18666 8.05726C8.84561 8.05726 9.4357 8.19457 9.96508 8.46676C10.4959 8.73735 10.8928 9.08466 11.1608 9.50629C11.4303 9.93195 11.6125 10.398 11.7109 10.9117C11.8087 11.423 11.8575 12.2186 11.8575 13.2977V20.3482H8.99813V13.998C8.99813 12.7379 8.9463 11.9399 8.83746 11.6007C8.73549 11.2684 8.5332 10.9836 8.26366 10.793C7.98823 10.5902 7.64543 10.4901 7.23154 10.4901C6.75769 10.4901 6.33271 10.6193 5.96325 10.8762C5.58565 11.1346 5.31466 11.5207 5.14289 12.0368C4.96816 12.5538 4.88079 13.3171 4.88375 14.3275L4.88079 20.3482H2.02509V3.2627H4.88449M16.1429 3.2627V9.85683C17.064 8.65981 18.1664 8.05726 19.4451 8.05726C20.1018 8.05726 20.6964 8.19457 21.2265 8.46676C21.7551 8.73735 22.152 9.08466 22.4185 9.50629C22.6875 9.92913 22.8747 10.4073 22.9686 10.9117C23.0671 11.423 23.116 12.2186 23.116 13.2977V20.3482H20.2595V13.998C20.2595 12.7379 20.2055 11.9399 20.0967 11.6007C19.9947 11.2679 19.7917 10.983 19.5214 10.793C19.2489 10.5902 18.9031 10.4901 18.4893 10.4901C18.0161 10.4901 17.5912 10.6193 17.221 10.8762C16.8485 11.1346 16.5761 11.5207 16.4021 12.0368C16.2303 12.5538 16.1429 13.3171 16.1429 14.3275V20.3482H13.2872V3.2627H16.1429Z" fill="#FCFCFC"/>
</svg>
