<svg width="22" height="23" viewBox="0 0 22 23" fill="none" xmlns="http://www.w3.org/2000/svg">
<path fill-rule="evenodd" clip-rule="evenodd" d="M17.6886 4.19947C17.9152 4.10413 18.1631 4.07125 18.4066 4.10425C18.6502 4.13725 18.8804 4.23492 19.0734 4.3871C19.2664 4.53928 19.4151 4.74041 19.504 4.96955C19.5929 5.19869 19.6187 5.44746 19.5788 5.68997L17.4998 18.3006C17.2981 19.517 15.9635 20.2146 14.8479 19.6086C13.9147 19.1017 12.5287 18.3207 11.2821 17.5058C10.6587 17.0979 8.7493 15.7916 8.98397 14.8621C9.18564 14.0674 12.394 11.0809 14.2273 9.30531C14.9469 8.60772 14.6187 8.20531 13.769 8.84697C11.6579 10.4401 8.2708 12.8629 7.15064 13.5449C6.16247 14.1462 5.6473 14.2489 5.0313 14.1462C3.90747 13.9592 2.86522 13.6696 2.01455 13.3166C0.865054 12.84 0.920971 11.2596 2.01364 10.7995L17.6886 4.19947Z" fill="#FCFCFC"/>
</svg>
