<svg width="22" height="23" viewBox="0 0 22 23" fill="none" xmlns="http://www.w3.org/2000/svg">
<path d="M6.36149 4.02077C6.36125 4.507 6.16786 4.97322 5.82387 5.31687C5.47988 5.66051 5.01347 5.85343 4.52724 5.85319C4.04101 5.85295 3.57479 5.65956 3.23115 5.31557C2.8875 4.97158 2.69458 4.50517 2.69482 4.01894C2.69507 3.53271 2.88845 3.06649 3.23244 2.72285C3.57643 2.3792 4.04284 2.18628 4.52907 2.18652C5.0153 2.18677 5.48152 2.38015 5.82517 2.72414C6.16881 3.06813 6.36173 3.53454 6.36149 4.02077ZM6.41649 7.21077H2.74982V18.6874H6.41649V7.21077ZM12.2098 7.21077H8.56149V18.6874H12.1732V12.6649C12.1732 9.30994 16.5457 8.99827 16.5457 12.6649V18.6874H20.1665V11.4183C20.1665 5.76244 13.6948 5.97327 12.1732 8.75077L12.2098 7.21077Z" fill="#FCFCFC"/>
</svg>
